G04 ================== begin FILE IDENTIFICATION RECORD ==================*
G04 Layout Name:  C:/USERS/USER/DESKTOP/신성욱 교수님/EXAM/0731_2/allegro/DAC.brd*
G04 Film Name:    SolderT*
G04 File Format:  Gerber RS274X*
G04 File Origin:  Cadence Allegro 17.2-P019*
G04 Origin Date:  Wed Jul 31 16:06:32 2019*
G04 *
G04 Layer:  VIA CLASS/SOLDERMASK_TOP*
G04 Layer:  PIN/SOLDERMASK_TOP*
G04 Layer:  PACKAGE GEOMETRY/SOLDERMASK_TOP*
G04 Layer:  BOARD GEOMETRY/SOLDERMASK_TOP*
G04 *
G04 Offset:    (0.000 0.000)*
G04 Mirror:    No*
G04 Mode:      Positive*
G04 Rotation:  0*
G04 FullContactRelief:  No*
G04 UndefLineWidth:     0.000*
G04 ================== end FILE IDENTIFICATION RECORD ====================*
%FSLAX25Y25*MOMM*%
%IR0*IPPOS*OFA0.00000B0.00000*MIA0B0*SFA1.00000B1.00000*%
%ADD12C,2.032*%
%ADD11C,1.905*%
%ADD10C,3.683*%
%ADD13R,1.905X1.905*%
%LPD*%
G75*
G54D10*
X500000Y500000D03*
Y6500000D03*
X9500000Y500000D03*
Y6500000D03*
G54D11*
X500000Y2992000D03*
Y2738000D03*
Y3500000D03*
Y3246000D03*
X2984500Y2730500D03*
Y3492500D03*
X2730500D03*
X3492500Y2730500D03*
X3238500D03*
X3492500Y3492500D03*
X3238500D03*
X4572000Y2730500D03*
X4318000D03*
X4572000Y3492500D03*
X4318000D03*
X4064000D03*
X4826000Y2730500D03*
Y3492500D03*
X5905500Y2730500D03*
X5651500D03*
X5905500Y3492500D03*
X5651500D03*
X5397500D03*
X5359400Y4064000D03*
X6794500Y2730500D03*
X6159500D03*
X6794500Y3492500D03*
X6159500D03*
X6819900Y5080000D03*
X7048500Y2730500D03*
X7302500D03*
X7556500D03*
X7048500Y3492500D03*
X7302500D03*
X7556500D03*
X8318500Y2730500D03*
X7810500D03*
X8064500D03*
X7810500Y3492500D03*
X8064500D03*
X9500000Y3000000D03*
Y3254000D03*
G54D12*
X1730000Y1834000D03*
Y2850000D03*
X1587500Y4064000D03*
X2286000D03*
X1587500Y5080000D03*
X2286000D03*
X3048000Y1841500D03*
Y2095500D03*
X2984500Y4064000D03*
Y5080000D03*
X3683000Y4064000D03*
Y5080000D03*
X4318000Y4064000D03*
Y5080000D03*
X5207000Y1079500D03*
Y2095500D03*
X4826000Y4064000D03*
Y5080000D03*
X5905500Y1079500D03*
Y2095500D03*
X5397500Y5080000D03*
X6540500Y1079500D03*
Y2095500D03*
X6413500Y5080000D03*
X7556500Y1079500D03*
X7048500D03*
X7556500Y2095500D03*
X7048500D03*
X8064500Y1079500D03*
Y2095500D03*
X8001000Y4445000D03*
Y4953000D03*
Y5461000D03*
X9017000Y2603500D03*
Y3619500D03*
Y4445000D03*
Y4953000D03*
Y5461000D03*
G54D13*
X2730500Y2730500D03*
X4064000D03*
X5397500D03*
X6350000Y4064000D03*
X8318500Y3492500D03*
X7810500Y5080000D03*
M02*
